{
  "accessors": [
    {
      "bufferView": 2,
      "componentType": 5126,
      "count": 33764,
      "max": [
        1.917641043663025,
        2.275970935821533,
        0.291431188583374
      ],
      "min": [
        -1.7329599857330322,
        -2.495821952819824,
        -0.582135021686554
      ],
      "type": "VEC3"
    },
    {
      "bufferView": 2,
      "byteOffset": 405168,
      "componentType": 5126,
      "count": 33764,
      "max": [
        0.9998293519020081,
        0.9994848370552063,
        0.9975270628929138
      ],
      "min": [
        -0.9995504021644592,
        -0.9997661709785461,
        -0.9999967217445374
      ],
      "type": "VEC3"
    },
    {
      "bufferView": 1,
      "componentType": 5126,
      "count": 33764,
      "max": [
        0.9998459815979004,
        0.9940000176429749
      ],
      "min": [
        1.9999999949504854e-06,
        0.0001320000010309741
      ],
      "type": "VEC2"
    },
    {
      "bufferView": 0,
      "componentType": 5125,
      "count": 33942,
      "type": "SCALAR"
    },
    {
      "bufferView": 2,
      "byteOffset": 810336,
      "componentType": 5126,
      "count": 180,
      "max": [
        1.8883625268936157,
        2.187440872192383,
        0.291431188583374
      ],
      "min": [
        -1.7018193006515503,
        -2.4602103233337402,
        0.23020502924919128
      ],
      "type": "VEC3"
    },
    {
      "bufferView": 2,
      "byteOffset": 812496,
      "componentType": 5126,
      "count": 180,
      "max": [
        0.017051298171281815,
        1.13474847296402e-08,
        0.9998546838760376
      ],
      "min": [
        0.017051298171281815,
        1.13474847296402e-08,
        0.9998546838760376
      ],
      "type": "VEC3"
    },
    {
      "bufferView": 1,
      "byteOffset": 270112,
      "componentType": 5126,
      "count": 180,
      "max": [
        0.8186584711074829,
        0.5
      ],
      "min": [
        0.674195408821106,
        0.5
      ],
      "type": "VEC2"
    },
    {
      "bufferView": 0,
      "byteOffset": 135768,
      "componentType": 5125,
      "count": 534,
      "type": "SCALAR"
    }
  ],
  "asset": {
    "extras": {
      "author": "Rainbow (https://sketchfab.com/encoded01)",
      "license": "CC-BY-4.0 (http://creativecommons.org/licenses/by/4.0/)",
      "source": "https://sketchfab.com/3d-models/souvlaki-greek-platter-da9954daa6524a9d92e88f68e95d0443",
      "title": "Souvlaki Greek Platter"
    },
    "generator": "Sketchfab-15.46.0",
    "version": "2.0"
  },
  "bufferViews": [
    {
      "buffer": 0,
      "byteLength": 137904,
      "name": "floatBufferViews",
      "target": 34963
    },
    {
      "buffer": 0,
      "byteLength": 271552,
      "byteOffset": 137904,
      "byteStride": 8,
      "name": "floatBufferViews",
      "target": 34962
    },
    {
      "buffer": 0,
      "byteLength": 814656,
      "byteOffset": 409456,
      "byteStride": 12,
      "name": "floatBufferViews",
      "target": 34962
    }
  ],
  "buffers": [
    {
      "byteLength": 1224112,
      "uri": "scene.bin"
    }
  ],
  "extensionsRequired": [
    "KHR_materials_pbrSpecularGlossiness"
  ],
  "extensionsUsed": [
    "KHR_materials_pbrSpecularGlossiness"
  ],
  "images": [
    {
      "uri": "textures/3DModel_LowPoly_diffuse.jpeg"
    }
  ],
  "materials": [
    {
      "doubleSided": true,
      "extensions": {
        "KHR_materials_pbrSpecularGlossiness": {
          "diffuseFactor": [
            0.6069973032693573,
            0.6069973032693573,
            0.6069973032693573,
            1.0
          ],
          "glossinessFactor": 0.3990757064535313,
          "specularFactor": [
            0.0,
            0.0,
            0.0
          ]
        }
      },
      "name": "material_0"
    },
    {
      "doubleSided": true,
      "extensions": {
        "KHR_materials_pbrSpecularGlossiness": {
          "diffuseFactor": [
            1.0,
            1.0,
            1.0,
            1.0
          ],
          "diffuseTexture": {
            "index": 0
          },
          "glossinessFactor": 0.0,
          "specularFactor": [
            0.0,
            0.0,
            0.0
          ]
        }
      },
      "name": "3DModel_LowPoly"
    }
  ],
  "meshes": [
    {
      "name": "Object_0",
      "primitives": [
        {
          "attributes": {
            "NORMAL": 1,
            "POSITION": 0,
            "TEXCOORD_0": 2
          },
          "indices": 3,
          "material": 1,
          "mode": 4
        }
      ]
    },
    {
      "name": "Object_1",
      "primitives": [
        {
          "attributes": {
            "NORMAL": 5,
            "POSITION": 4,
            "TEXCOORD_0": 6
          },
          "indices": 7,
          "material": 0,
          "mode": 4
        }
      ]
    }
  ],
  "nodes": [
    {
      "children": [
        1
      ],
      "matrix": [
        0.1163611114025116,
        0.0,
        0.0,
        0.0,
        0.0,
        2.5837357010008243e-17,
        -0.1163611114025116,
        0.0,
        0.0,
        0.1163611114025116,
        2.5837357010008243e-17,
        0.0,
        0.0,
        0.0,
        0.0,
        1.0
      ],
      "name": "Sketchfab_model"
    },
    {
      "children": [
        2
      ],
      "name": "root"
    },
    {
      "children": [
        3
      ],
      "matrix": [
        1.0,
        0.0,
        0.0,
        0.0,
        0.0,
        2.220446049250313e-16,
        1.0,
        0.0,
        0.0,
        -1.0,
        2.220446049250313e-16,
        0.0,
        0.0,
        0.0,
        0.0,
        1.0
      ],
      "name": "GLTF_SceneRootNode"
    },
    {
      "children": [
        4,
        5
      ],
      "matrix": [
        0.9998546164585602,
        -0.01705127404347106,
        -6.585205731407529e-10,
        0.0,
        6.585205731407529e-10,
        -5.614619880134342e-12,
        0.9999999999999999,
        0.0,
        -0.01705127404347106,
        -0.9998546164585601,
        5.614841924739267e-12,
        0.0,
        0.0,
        0.4620359539985657,
        0.16485071182250977,
        1.0
      ],
      "name": "3DModel_LowPoly_1"
    },
    {
      "mesh": 0,
      "name": "Object_4"
    },
    {
      "mesh": 1,
      "name": "Object_5"
    }
  ],
  "samplers": [
    {
      "magFilter": 9729,
      "minFilter": 9987,
      "wrapS": 10497,
      "wrapT": 10497
    }
  ],
  "scene": 0,
  "scenes": [
    {
      "name": "Sketchfab_Scene",
      "nodes": [
        0
      ]
    }
  ],
  "textures": [
    {
      "sampler": 0,
      "source": 0
    }
  ]
}
